<?xml version="1.0" encoding="UTF-8" standalone="no" ?>
<!DOCTYPE svg PUBLIC "-//W3C//DTD SVG 1.1//EN" "http://www.w3.org/Graphics/SVG/1.1/DTD/svg11.dtd">
<svg xmlns="http://www.w3.org/2000/svg" xmlns:xlink="http://www.w3.org/1999/xlink" version="1.1" width="1080" height="1080" viewBox="0 0 1080 1080" xml:space="preserve">
<desc>Created with Fabric.js 5.2.4</desc>
<defs>
</defs>
<g transform="matrix(1 0 0 1 540 540)" id="5ff2062f-f3ca-4a30-8846-9c66ae2af950"  >
</g>
<g transform="matrix(1 0 0 1 540 540)" id="89b8ba6a-a8c0-44e9-994c-4261900160d2"  >
<rect style="stroke: none; stroke-width: 1; stroke-dasharray: none; stroke-linecap: butt; stroke-dashoffset: 0; stroke-linejoin: miter; stroke-miterlimit: 4; fill: rgb(255,255,255); fill-rule: nonzero; opacity: 1; visibility: hidden;" vector-effect="non-scaling-stroke"  x="-540" y="-540" rx="0" ry="0" width="1080" height="1080" />
</g>
<g transform="matrix(1 0 0 1 750.06 391.01)"  >
<path style="stroke: none; stroke-width: 1; stroke-dasharray: none; stroke-linecap: butt; stroke-dashoffset: 0; stroke-linejoin: miter; stroke-miterlimit: 4; fill: rgb(47,46,65); fill-rule: nonzero; opacity: 1;" vector-effect="non-scaling-stroke"  transform=" translate(-810.06, -301.01)" d="M 839.05636 330.50929 L 781.05636 330.50929 C 778.572239164951 330.5064904415061 776.5591595584939 328.493410835049 776.55636 326.00929 L 776.55636 305.00929 C 776.55636 286.5077508806684 791.5548208806684 271.50929 810.05636 271.50929 C 828.5578991193316 271.50929 843.55636 286.5077508806684 843.55636 305.00929 L 843.55636 326.00929 C 843.5535604415062 328.493410835049 841.540480835049 330.5064904415061 839.05636 330.50929 Z" stroke-linecap="round" />
</g>
<g transform="matrix(1 0 0 1 689.77 701.35)"  >
<polygon style="stroke: none; stroke-width: 1; stroke-dasharray: none; stroke-linecap: butt; stroke-dashoffset: 0; stroke-linejoin: miter; stroke-miterlimit: 4; fill: rgb(160,97,106); fill-rule: nonzero; opacity: 1;" vector-effect="non-scaling-stroke"  points="-0.92,25.25 -12.66,21.72 -4.67,-25.25 12.66,-20.05 -0.92,25.25 " />
</g>
<g transform="matrix(1 0 0 1 671.78 727.47)"  >
<path style="stroke: none; stroke-width: 1; stroke-dasharray: none; stroke-linecap: butt; stroke-dashoffset: 0; stroke-linejoin: miter; stroke-miterlimit: 4; fill: rgb(47,46,65); fill-rule: nonzero; opacity: 1;" vector-effect="non-scaling-stroke"  transform=" translate(-731.78, -637.48)" d="M 748.43228 648.87907 L 710.56759 637.52446 L 710.7112 637.04552 C 711.8831493727213 633.1366891077739 714.5599116805715 629.8535285225963 718.1526026566678 627.9183293528675 C 721.7452936327641 625.9831301831387 725.9596036781048 625.5544219810579 729.86839 626.72652 L 729.86932 626.7268 L 752.99567 633.66187 Z" stroke-linecap="round" />
</g>
<g transform="matrix(1 0 0 1 816.59 703.34)"  >
<polygon style="stroke: none; stroke-width: 1; stroke-dasharray: none; stroke-linecap: butt; stroke-dashoffset: 0; stroke-linejoin: miter; stroke-miterlimit: 4; fill: rgb(160,97,106); fill-rule: nonzero; opacity: 1;" vector-effect="non-scaling-stroke"  points="9.04,23.64 -3.22,23.64 -9.05,-23.64 9.05,-23.64 9.04,23.64 " />
</g>
<g transform="matrix(1 0 0 1 809 730.93)"  >
<path style="stroke: none; stroke-width: 1; stroke-dasharray: none; stroke-linecap: butt; stroke-dashoffset: 0; stroke-linejoin: miter; stroke-miterlimit: 4; fill: rgb(47,46,65); fill-rule: nonzero; opacity: 1;" vector-effect="non-scaling-stroke"  transform=" translate(-869, -640.94)" d="M 888.7622 648.87907 L 849.23168 648.87761 L 849.23168 648.37761 C 849.2316322582952 644.2968718688941 850.8526944504008 640.3832599531252 853.738234559762 637.4977648527638 C 856.6237746691231 634.6122697524025 860.5374118701352 632.9912686059572 864.61815 632.99138 L 864.61915 632.99138 L 888.76295 632.99238 Z" stroke-linecap="round" />
</g>
<g transform="matrix(1 0 0 1 751.4 395.74)"  >
<circle style="stroke: none; stroke-width: 1; stroke-dasharray: none; stroke-linecap: butt; stroke-dashoffset: 0; stroke-linejoin: miter; stroke-miterlimit: 4; fill: rgb(160,97,106); fill-rule: nonzero; opacity: 1;" vector-effect="non-scaling-stroke"  cx="0" cy="0" r="24.56103" />
</g>
<g transform="matrix(1 0 0 1 754.64 561.58)"  >
<path style="stroke: none; stroke-width: 1; stroke-dasharray: none; stroke-linecap: butt; stroke-dashoffset: 0; stroke-linejoin: miter; stroke-miterlimit: 4; fill: rgb(14,83,159); fill-rule: nonzero; opacity: 1;" vector-effect="non-scaling-stroke"  transform=" translate(-814.65, -471.58)" d="M 782.109 609.14991 C 781.6664113811754 609.1499900904594 781.2256124642444 609.0937346899826 780.79723 608.9825 L 731.57705 596.18476 C 730.130604387127 595.8081008879669 728.9112888594932 594.8365754019163 728.2210834956282 593.5107950455341 C 727.5308781317634 592.1850146891518 727.4343334303027 590.628971230056 727.95536 589.22804 C 757.7960300000001 508.96720999999997 782.23136 439.73484999999994 778.9554300000001 405.43170999999995 C 774.3262088307282 396.1094028597906 771.9624401379208 385.82617134051486 772.0563300000001 375.41817999999995 L 772.4066300000001 340.73778999999996 C 772.4270418926677 338.68441330223277 773.3753266477859 336.7505018170793 774.9862276113564 335.4770142459334 C 776.597128574927 334.2035266747875 778.6976909429985 333.7271913443327 780.7003400000001 334.18125 L 835.7661400000001 346.64876 L 836.07803 347.68762999999996 C 840.4775750380793 362.4635088243124 840.0353003527999 378.25927858429753 834.81586 392.76582999999994 C 867.2783400000001 422.07301999999993 889.0446000000001 518.28717 901.59954 593.9648299999999 C 902.000602162457 596.4320581462165 900.6271474174686 598.845066245107 898.301 599.76 L 898.1456300000001 599.79784 L 859.5379700000001 603.61384 C 858.171552408844 604.1206576365215 856.6564735781164 604.0405602705158 855.3511109917232 603.3924941719157 C 854.04574840533 602.7444280733157 853.0660448928934 601.5859547334933 852.6437400000001 600.1911 L 819.4717400000001 490.7251 L 787.21274 605.30053 C 786.557649969259 607.5764289843655 784.4772988765258 609.1454865557437 782.109 609.14991 Z" stroke-linecap="round" />
</g>
<g transform="matrix(1 0 0 1 751.01 381.38)"  >
<path style="stroke: none; stroke-width: 1; stroke-dasharray: none; stroke-linecap: butt; stroke-dashoffset: 0; stroke-linejoin: miter; stroke-miterlimit: 4; fill: rgb(47,46,65); fill-rule: nonzero; opacity: 1;" vector-effect="non-scaling-stroke"  transform=" translate(-811, -291.38)" d="M 834.7485 306.50929 L 802.322 306.50929 C 801.0616177551041 306.50766586293776 799.9989476192235 305.56934395278427 799.84129 304.31886000000003 L 799.4213699999999 300.96046 C 799.3385765818072 300.2970361246695 798.8266843888199 299.76851137747065 798.1662459902951 299.66455412563766 C 797.5058075917703 299.5605968738046 796.8563046468979 299.90631055627165 796.5737099999999 300.51222 L 794.4479799999999 305.06691 C 794.0352562441955 305.9452743040115 793.1530943489716 306.5069516713552 792.1825999999999 306.50929 L 787.257 306.50929 C 786.5524380463918 306.5094753582565 785.8805188149333 306.2122979787803 785.4066391349784 305.6909098030843 C 784.9327594550234 305.1695216273883 784.7009347426446 304.4723508081435 784.7682299999999 303.77101000000005 L 786.7103699999999 283.48487000000006 C 786.7949772523428 282.601981336266 787.337622116266 281.8286295106472 788.1390799999999 281.44874000000004 C 802.9894199999999 274.51612000000006 818.0487499999999 274.52491000000003 832.8990799999999 281.47511000000003 C 833.6644210267541 281.8348067011495 834.196458378364 282.55655408052695 834.3136299999999 283.39405000000005 L 837.2230599999999 303.65382000000005 C 837.3263957793339 304.3715655349285 837.1129072643299 305.09880777866454 836.6380012275393 305.646805216998 C 836.1630951907487 306.19480265533156 835.4735961103493 306.5095241913615 834.7484499999999 306.5092900000001 Z" stroke-linecap="round" />
</g>
<g transform="matrix(1 0 0 1 554.15 614.81)"  >
<path style="stroke: none; stroke-width: 1; stroke-dasharray: none; stroke-linecap: butt; stroke-dashoffset: 0; stroke-linejoin: miter; stroke-miterlimit: 4; fill: rgb(204,204,204); fill-rule: nonzero; opacity: 1;" vector-effect="non-scaling-stroke"  transform=" translate(-614.15, -524.81)" d="M 761.58288 615.46372 L 453.666 589.614 C 448.99063838008055 589.2162432503494 445.5195584950884 585.1089584998064 445.90686999999997 580.43272 L 457.53506 441.92 C 457.9328114604973 437.24463564655287 462.0400996867616 433.7735528242172 466.71634 434.16087 L 774.6332 460.01054 C 779.3085616199194 460.4082967496506 782.7796415049116 464.5155815001936 782.39233 469.19182 L 770.76416 607.70459 C 770.3664032503493 612.3799516199194 766.2591184998064 615.8510315049115 761.58288 615.46372 Z" stroke-linecap="round" />
</g>
<g transform="matrix(1 0 0 1 554.15 614.81)"  >
<path style="stroke: none; stroke-width: 1; stroke-dasharray: none; stroke-linecap: butt; stroke-dashoffset: 0; stroke-linejoin: miter; stroke-miterlimit: 4; fill: rgb(255,255,255); fill-rule: nonzero; opacity: 1;" vector-effect="non-scaling-stroke"  transform=" translate(-614.15, -524.81)" d="M 757.35331 606.077 L 459.40139 581.06386 C 456.9262133284149 580.8532617215379 455.08859711913544 578.6788347258789 455.29362 576.20319 L 466.08522999999997 447.65536999999995 C 466.2958281820447 445.1801890934453 468.4702615304036 443.3425712960613 470.94590999999997 443.54759999999993 L 768.8978199999999 468.56071999999995 C 771.3729979503896 468.7713183936768 773.2106170380902 470.94574350188935 773.0056 473.42139 L 762.214 601.96921 C 762.0034175509822 604.4444058995412 759.8289711980171 606.282039853619 757.35331 606.077 Z" stroke-linecap="round" />
</g>
<g transform="matrix(1 0 0 1 639.95 609.38)"  >
<path style="stroke: none; stroke-width: 1; stroke-dasharray: none; stroke-linecap: butt; stroke-dashoffset: 0; stroke-linejoin: miter; stroke-miterlimit: 4; fill: rgb(14,83,159); fill-rule: nonzero; opacity: 1;" vector-effect="non-scaling-stroke"  transform=" translate(-699.95, -519.38)" d="M 680.60482 557.82091 Q 680.6335 557.82331 680.66233 557.8239100000001 C 701.0571891348714 558.2375961704756 718.2640131208218 542.7338277319844 719.9705124643251 522.4062780673173 C 721.6770118078283 502.07872840265014 707.2958925775397 483.9231497238512 687.11752 480.9307100000001 C 686.8745519756783 480.8937517268144 686.627182833842 480.95985649777924 686.43504 481.1130900000001 C 686.2436040437258 481.26352221775863 686.1237203736632 481.48709190334813 686.10435 481.7297900000001 L 679.79657 556.8669600000001 C 679.7568146063788 557.353433953914 680.1184247892143 557.7802525303754 680.60482 557.82096 Z" stroke-linecap="round" />
</g>
<g transform="matrix(1 0 0 1 601.29 614.38)"  >
<path style="stroke: none; stroke-width: 1; stroke-dasharray: none; stroke-linecap: butt; stroke-dashoffset: 0; stroke-linejoin: miter; stroke-miterlimit: 4; fill: rgb(230,230,230); fill-rule: nonzero; opacity: 1;" vector-effect="non-scaling-stroke"  transform=" translate(-661.29, -524.39)" d="M 655.05426 491.101 C 655.3541966217762 491.1264523898585 655.6318451318982 491.26965776805423 655.82647 491.49929 L 679.79022 519.85529 C 679.985004320841 520.0844809611302 680.080005881814 520.3820706592336 680.05405 520.68173 L 677.03575 556.63522 C 677.010783649197 556.9472157485899 676.8566495148142 557.2346072686099 676.61056 557.42801 C 676.3636691659311 557.6239464992213 676.0466401068018 557.7088505805139 675.73487 557.66253 C 661.1333989351574 555.4968779426698 649.0144638738153 545.2558208804503 644.4437501099446 531.2200956843795 C 639.8730363460741 517.1843704883087 643.6376028476864 501.77087394055553 654.16387 491.42240999999996 C 654.3895405007485 491.2014578591581 654.6967801371029 491.08405843704435 655.01229 491.09821999999997 Z" stroke-linecap="round" />
</g>
<g transform="matrix(1 0 0 1 610.4 587.62)"  >
<path style="stroke: none; stroke-width: 1; stroke-dasharray: none; stroke-linecap: butt; stroke-dashoffset: 0; stroke-linejoin: miter; stroke-miterlimit: 4; fill: rgb(207,59,66); fill-rule: nonzero; opacity: 1;" vector-effect="non-scaling-stroke"  transform=" translate(-670.4, -497.62)" d="M 682.30439 480.2719 C 682.5931476089189 480.2964042865839 682.8618153975665 480.42968372667895 683.05603 480.64477 C 683.2667313181686 480.87669728827734 683.370951152875 481.18610853262567 683.3435099999999 481.49825 L 680.6202099999999 513.93773 C 680.5818099164991 514.3944843002773 680.2720851029447 514.7831482816165 679.8354256960009 514.9225312775743 C 679.3987662890572 515.0619142735321 678.921139724797 514.9245752199654 678.6252099999999 514.57454 L 657.7138799999999 489.83041999999995 C 657.5131700223964 489.59262303515175 657.4188133126542 489.2828923941391 657.4528516777182 488.97358141582697 C 657.4868900427822 488.66427043751486 657.6463422032474 488.3824703892919 657.8939599999999 488.19400999999993 C 664.8843301580955 482.8884335078082 673.4600148644104 480.0959660789524 682.2341099999999 480.2682199999999 C 682.25751 480.26871 682.2811 480.27 682.30439 480.2719 Z" stroke-linecap="round" />
</g>
<g transform="matrix(1 0 0 1 597.92 661.7)"  >
<path style="stroke: none; stroke-width: 1; stroke-dasharray: none; stroke-linecap: butt; stroke-dashoffset: 0; stroke-linejoin: miter; stroke-miterlimit: 4; fill: rgb(207,59,66); fill-rule: nonzero; opacity: 1;" vector-effect="non-scaling-stroke"  transform=" translate(-657, -571.7)" d="M 663.91866 572.28432 C 663.5978494940806 576.1057484239064 660.239902181901 578.9435604659843 656.4184736237816 578.6227515587865 C 652.5970450656622 578.3019426515887 649.7592316187635 574.9439965266281 650.0800389272396 571.1225678342963 C 650.4008462357157 567.3011391419645 653.7587911734566 564.4633242902456 657.58022 564.78413 C 661.3994852477186 565.1091340094107 664.2349702459878 568.4643249127195 663.91866 572.28432 Z" stroke-linecap="round" />
</g>
<g transform="matrix(1 0 0 1 616.76 663.36)"  >
<path style="stroke: none; stroke-width: 1; stroke-dasharray: none; stroke-linecap: butt; stroke-dashoffset: 0; stroke-linejoin: miter; stroke-miterlimit: 4; fill: rgb(14,83,159); fill-rule: nonzero; opacity: 1;" vector-effect="non-scaling-stroke"  transform=" translate(-676.77, -573.36)" d="M 683.68814 573.944 C 683.3673241275148 577.7654265623462 680.0093749781983 580.6032333885763 676.1879481152848 580.2824210963445 C 672.3665212523713 579.9616088041128 669.5287112801162 576.6036623135082 669.8495199920943 572.7822351500308 C 670.1703287040724 568.9608079865534 673.5282725359621 566.1229948682758 677.3497 566.4438 C 681.1689722159929 566.7687986243747 684.0044617393493 570.1239993556393 683.68814 573.944 Z" stroke-linecap="round" />
</g>
<g transform="matrix(1 0 0 1 636.53 665.01)"  >
<path style="stroke: none; stroke-width: 1; stroke-dasharray: none; stroke-linecap: butt; stroke-dashoffset: 0; stroke-linejoin: miter; stroke-miterlimit: 4; fill: rgb(230,230,230); fill-rule: nonzero; opacity: 1;" vector-effect="non-scaling-stroke"  transform=" translate(-696.54, -575.02)" d="M 703.45762 575.60361 C 703.1368094940806 579.4250384239065 699.778862181901 582.2628504659843 695.9574336237815 581.9420415587865 C 692.1360050656622 581.6212326515887 689.2981916187634 578.2632865266281 689.6189989272395 574.4418578342963 C 689.9398062357157 570.6204291419646 693.2977511734566 567.7826142902456 697.11918 568.10342 C 700.9384452477186 568.4284240094107 703.7739302459878 571.7836149127195 703.45762 575.60361 Z" stroke-linecap="round" />
</g>
<g transform="matrix(1 0 0 1 487.89 583.33)"  >
<path style="stroke: none; stroke-width: 1; stroke-dasharray: none; stroke-linecap: butt; stroke-dashoffset: 0; stroke-linejoin: miter; stroke-miterlimit: 4; fill: rgb(230,230,230); fill-rule: nonzero; opacity: 1;" vector-effect="non-scaling-stroke"  transform=" translate(-547.89, -493.34)" d="M 580.02565 491.29512 L 516.539 485.9654 C 513.938597631083 485.7470956455106 511.65358435448934 487.67816763108294 511.4352799999999 490.27856999999995 C 511.21697564551056 492.878972368917 513.1480476310829 495.16398564551065 515.7484499999999 495.38229 L 579.2351 500.712 C 581.8354996074933 500.93030435448935 584.1205106455106 498.9992346074933 584.3388150000001 496.398835 C 584.5571193544894 493.79843539250675 582.6260496074933 491.51342435448936 580.02565 491.29512 Z" stroke-linecap="round" />
</g>
<g transform="matrix(1 0 0 1 485.72 609.06)"  >
<path style="stroke: none; stroke-width: 1; stroke-dasharray: none; stroke-linecap: butt; stroke-dashoffset: 0; stroke-linejoin: miter; stroke-miterlimit: 4; fill: rgb(230,230,230); fill-rule: nonzero; opacity: 1;" vector-effect="non-scaling-stroke"  transform=" translate(-545.72, -519.07)" d="M 577.86565 517.02462 L 514.379 511.6949 C 512.1584854406769 511.50435268422245 510.10710686943804 512.892434163677 509.4582502042493 515.0245641352678 C 508.8093935390605 517.1566941068586 509.73977283030666 519.4521937497607 511.69 520.5309 C 512.273786309132 520.8585768006872 512.921296545877 521.056681529135 513.58849 521.1117399999999 L 577.07513 526.4414599999999 C 579.675532368917 526.6597643544893 581.9605456455106 524.728692368917 582.17885 522.12829 C 582.3971543544893 519.5278876310829 580.466082368917 517.2428743544893 577.86568 517.0245699999999 Z" stroke-linecap="round" />
</g>
<g transform="matrix(1 0 0 1 483.57 634.79)"  >
<path style="stroke: none; stroke-width: 1; stroke-dasharray: none; stroke-linecap: butt; stroke-dashoffset: 0; stroke-linejoin: miter; stroke-miterlimit: 4; fill: rgb(230,230,230); fill-rule: nonzero; opacity: 1;" vector-effect="non-scaling-stroke"  transform=" translate(-543.57, -544.8)" d="M 575.70566 542.75412 L 512.219 537.4244 C 509.618597631083 537.2060956455106 507.33358435448946 539.1371676310829 507.11528000000004 541.73757 C 506.8969756455107 544.337972368917 508.828047631083 546.6229856455105 511.42845000000005 546.84129 L 574.9150900000001 552.1710099999999 C 577.5154923689171 552.3893143544893 579.8005056455107 550.458242368917 580.01881 547.85784 C 580.2371143544894 545.2574376310829 578.3060423689171 542.9724243544894 575.7056400000001 542.75412 Z" stroke-linecap="round" />
</g>
<g transform="matrix(1 0 0 1 477.7 582.52)"  >
<path style="stroke: none; stroke-width: 1; stroke-dasharray: none; stroke-linecap: butt; stroke-dashoffset: 0; stroke-linejoin: miter; stroke-miterlimit: 4; fill: rgb(207,59,66); fill-rule: nonzero; opacity: 1;" vector-effect="non-scaling-stroke"  transform=" translate(-537.7, -492.53)" d="M 561.95883 489.7784 L 516.5390100000001 485.9654 C 513.9386076310831 485.7470956455106 511.6535943544894 487.67816763108294 511.43529 490.27856999999995 C 511.21698564551065 492.878972368917 513.148057631083 495.16398564551065 515.74846 495.38229 L 560.2219 499.11584 C 562.1185155816348 498.5185280635959 563.5309309566411 496.9236686173903 563.894579887392 494.96875387013546 C 564.2582288181427 493.0138391228806 563.5137907002155 491.0177665457225 561.95883 489.7784 Z" stroke-linecap="round" />
</g>
<g transform="matrix(1 0 0 1 464.61 607.05)"  >
<path style="stroke: none; stroke-width: 1; stroke-dasharray: none; stroke-linecap: butt; stroke-dashoffset: 0; stroke-linejoin: miter; stroke-miterlimit: 4; fill: rgb(207,59,66); fill-rule: nonzero; opacity: 1;" vector-effect="non-scaling-stroke"  transform=" translate(-524.61, -517.06)" d="M 538.82281 513.747 L 514.379 511.6949 C 512.1584854406769 511.50435268422245 510.10710686943804 512.892434163677 509.4582502042493 515.0245641352678 C 508.8093935390605 517.1566941068586 509.73977283030666 519.4521937497607 511.69 520.5309 L 534.1413 522.4156899999999 C 537.1018198983113 522.6631896958477 539.7029025483403 520.4649530497571 539.95239 517.5046 C 540.073493634183 516.1533700535743 539.6689025326649 514.8074790825369 538.82281 513.747 Z" stroke-linecap="round" />
</g>
<g transform="matrix(1 0 0 1 480.34 634.6)"  >
<path style="stroke: none; stroke-width: 1; stroke-dasharray: none; stroke-linecap: butt; stroke-dashoffset: 0; stroke-linejoin: miter; stroke-miterlimit: 4; fill: rgb(207,59,66); fill-rule: nonzero; opacity: 1;" vector-effect="non-scaling-stroke"  transform=" translate(-540.34, -544.61)" d="M 570.96209 542.3559 L 512.219 537.4244 C 509.618597631083 537.2060956455106 507.33358435448946 539.1371676310829 507.11528000000004 541.73757 C 506.8969756455107 544.337972368917 508.828047631083 546.6229856455105 511.42845000000005 546.84129 L 570.55007 551.8045599999999 C 572.3306733894298 550.9460418593667 573.4952941679094 549.1783151437681 573.5814073570314 547.203426198307 C 573.6675205461535 545.228537252846 572.6611875806818 543.3661481255925 570.96207 542.3558999999999 Z" stroke-linecap="round" />
</g>
<g transform="matrix(1 0 0 1 689.37 501.74)"  >
<path style="stroke: none; stroke-width: 1; stroke-dasharray: none; stroke-linecap: butt; stroke-dashoffset: 0; stroke-linejoin: miter; stroke-miterlimit: 4; fill: rgb(160,97,106); fill-rule: nonzero; opacity: 1;" vector-effect="non-scaling-stroke"  transform=" translate(-749.37, -411.74)" d="M 734.99086 466.5294 C 738.0876861656035 465.8102048915634 740.706895131677 463.7562446816084 742.1437075963718 460.92020098567156 C 743.5805200610666 458.0841572897347 743.6873421238735 454.757357446201 742.43543 451.83498000000003 L 777.05636 361.00929 L 759.3832 356.65694 L 727.579 446.39928 C 722.7019262094716 448.8823284460995 720.4528097974882 454.6207175365553 722.343765594454 459.7564418786376 C 724.23472139142 464.89216622071996 729.6680488044115 467.8019062797888 734.9908399999999 466.52939999999995 Z" stroke-linecap="round" />
</g>
<g transform="matrix(1 0 0 1 711.7 445.99)"  >
<path style="stroke: none; stroke-width: 1; stroke-dasharray: none; stroke-linecap: butt; stroke-dashoffset: 0; stroke-linejoin: miter; stroke-miterlimit: 4; fill: rgb(207,59,66); fill-rule: nonzero; opacity: 1;" vector-effect="non-scaling-stroke"  transform=" translate(-771.69, -355.99)" d="M 778.719 379.31886 C 777.9400759080687 379.3189078618221 777.1706467351361 379.1478788430772 776.46509 378.81786 L 776.4648500000001 378.81786 L 754.4314 368.50439 C 753.0311176227568 367.8485758408559 751.9855677300792 366.61582949411 751.5671147633175 365.1272798436247 C 751.1486617965556 363.6387301931394 751.3987384252779 362.0417643784582 752.2522 360.75239 L 765.6425800000001 340.52974 C 767.1885750190642 337.23836330193 769.989671947247 334.70425483419064 773.4189500000001 333.49458 C 778.6969828105473 331.5856868275863 784.605188645613 333.04333015094045 788.3896945993188 337.1880880665812 C 792.1742005530244 341.33284598222195 793.0900869011684 347.3488889046841 790.7104500000002 352.43208 L 783.8124500000001 375.52680999999995 C 783.1385624608703 377.77710415033397 781.0679813188905 379.31860678906713 778.7189500000002 379.3188099999999 Z" stroke-linecap="round" />
</g>
<g transform="matrix(1 0 0 1 732.06 507.05)"  >
<path style="stroke: none; stroke-width: 1; stroke-dasharray: none; stroke-linecap: butt; stroke-dashoffset: 0; stroke-linejoin: miter; stroke-miterlimit: 4; fill: rgb(160,97,106); fill-rule: nonzero; opacity: 1;" vector-effect="non-scaling-stroke"  transform=" translate(-792.06, -417.05)" d="M 764.50265 468.07863 C 767.6801422459562 467.9734145032919 770.6478317898973 466.46617716650445 772.6071786032621 463.96248242895837 C 774.5665254166271 461.45878769141234 775.3162617372777 458.21581975013993 774.6546500000001 455.10618999999997 L 830.8508300000001 375.00883999999996 L 814.0563400000001 366.00928999999996 L 761.1338400000001 446.89352999999994 C 755.8679179953393 448.3839953650548 752.549015525887 453.57750919835036 753.4084831952955 458.9823900378176 C 754.2679508647042 464.3872708772848 759.0341244094883 468.29512057748684 764.5026300000001 468.0786299999999 Z" stroke-linecap="round" />
</g>
<g transform="matrix(1 0 0 1 762.19 457.97)"  >
<path style="stroke: none; stroke-width: 1; stroke-dasharray: none; stroke-linecap: butt; stroke-dashoffset: 0; stroke-linejoin: miter; stroke-miterlimit: 4; fill: rgb(207,59,66); fill-rule: nonzero; opacity: 1;" vector-effect="non-scaling-stroke"  transform=" translate(-822.19, -367.98)" d="M 825.33761 391.10109 C 824.2067364048714 391.10098405864153 823.105394800381 390.74005453759236 822.19381 390.07081 L 802.57781 375.68116 C 801.3311016063983 374.7668989591516 800.5441692138957 373.355190106963 800.4221303106272 371.814001742233 C 800.3000914073587 370.27281337750304 800.855037726709 368.7548479443139 801.94232 367.65576999999996 L 818.9992 350.41261 C 821.1537009799089 347.4828950392243 824.3929462028073 345.53938320597763 827.9918799999999 345.01709999999997 C 833.539852078334 344.1678077738118 839.0533068567827 346.74325565332856 841.9624740917153 351.5430512184159 C 844.871641326648 356.34284678350326 844.603926888848 362.4222747462231 841.2841099999999 366.94777 L 830.04 388.26612 C 829.1190193458688 390.00952332137643 827.3093250386092 391.1005607217368 825.3376099999999 391.10112 Z" stroke-linecap="round" />
</g>
<g transform="matrix(1 0 0 1 402.06 517.22)"  >
<path style="stroke: none; stroke-width: 1; stroke-dasharray: none; stroke-linecap: butt; stroke-dashoffset: 0; stroke-linejoin: miter; stroke-miterlimit: 4; fill: rgb(255,184,184); fill-rule: nonzero; opacity: 1;" vector-effect="non-scaling-stroke"  transform=" translate(-462.06, -427.22)" d="M 469.56874 448.86976 C 466.7710076107747 447.85537373566194 464.566282235412 445.65386381259924 463.54781376056445 442.8576149000845 C 462.52934528571694 440.0613659875698 462.8017540468041 436.95761770702336 464.29174 434.38153 L 440.93287 407.33819 L 459.34722999999997 404.94129 L 478.70608 430.98958 C 482.9612737623649 433.84211601666476 484.4104287758121 439.4264738226345 482.0792521715722 443.9881896534906 C 479.74807556733225 448.5499054843467 474.37341885579076 450.6470863518866 469.56876 448.86976 Z" stroke-linecap="round" />
</g>
<g transform="matrix(1 0 0 1 284.25 521.23)"  >
<path style="stroke: none; stroke-width: 1; stroke-dasharray: none; stroke-linecap: butt; stroke-dashoffset: 0; stroke-linejoin: miter; stroke-miterlimit: 4; fill: rgb(255,184,184); fill-rule: nonzero; opacity: 1;" vector-effect="non-scaling-stroke"  transform=" translate(-344.25, -431.24)" d="M 337.90463 454.58428 C 335.94267338023724 452.34664252985976 335.0726218213161 449.35490732845034 335.52858953475123 446.4140930415714 C 335.98455724818643 443.4732787546925 337.7197058197763 440.88547492421327 340.26714 439.34700999999995 L 332.842 404.39209 L 350.13021 411.17086 L 354.53078 443.32539 C 356.8833099809339 447.87613106604607 355.4603416532329 453.4672197269554 351.21856227416185 456.3396662905452 C 346.9767828950909 459.21211285413506 341.25695844167416 458.457977920661 337.90463 454.58428000000004 Z" stroke-linecap="round" />
</g>
<g transform="matrix(1 0 0 1 370.62 703.1)"  >
<polygon style="stroke: none; stroke-width: 1; stroke-dasharray: none; stroke-linecap: butt; stroke-dashoffset: 0; stroke-linejoin: miter; stroke-miterlimit: 4; fill: rgb(255,184,184); fill-rule: nonzero; opacity: 1;" vector-effect="non-scaling-stroke"  points="-9.05,23.64 3.22,23.64 9.05,-23.64 -9.05,-23.64 -9.05,23.64 " />
</g>
<g transform="matrix(1 0 0 1 378.21 730.69)"  >
<path style="stroke: none; stroke-width: 1; stroke-dasharray: none; stroke-linecap: butt; stroke-dashoffset: 0; stroke-linejoin: miter; stroke-miterlimit: 4; fill: rgb(47,46,65); fill-rule: nonzero; opacity: 1;" vector-effect="non-scaling-stroke"  transform=" translate(-438.21, -640.7)" d="M 418.4416 632.75392 L 442.5854 632.75292 L 442.58639999999997 632.75292 C 446.6671381298647 632.7528086059573 450.58077533087686 634.3738097524025 453.466315440238 637.2593048527638 C 456.3518555495991 640.1447999531251 457.9729177417047 644.058411868894 457.97286999999994 648.13915 L 457.97286999999994 648.63915 L 418.4423499999999 648.6406099999999 Z" stroke-linecap="round" />
</g>
<g transform="matrix(1 0 0 1 310.62 703.1)"  >
<polygon style="stroke: none; stroke-width: 1; stroke-dasharray: none; stroke-linecap: butt; stroke-dashoffset: 0; stroke-linejoin: miter; stroke-miterlimit: 4; fill: rgb(255,184,184); fill-rule: nonzero; opacity: 1;" vector-effect="non-scaling-stroke"  points="-9.05,23.64 3.22,23.64 9.05,-23.64 -9.05,-23.64 -9.05,23.64 " />
</g>
<g transform="matrix(1 0 0 1 318.21 730.69)"  >
<path style="stroke: none; stroke-width: 1; stroke-dasharray: none; stroke-linecap: butt; stroke-dashoffset: 0; stroke-linejoin: miter; stroke-miterlimit: 4; fill: rgb(47,46,65); fill-rule: nonzero; opacity: 1;" vector-effect="non-scaling-stroke"  transform=" translate(-378.21, -640.7)" d="M 358.4416 632.75392 L 382.5854 632.75292 L 382.58639999999997 632.75292 C 386.6671381298647 632.7528086059573 390.58077533087686 634.3738097524025 393.466315440238 637.2593048527638 C 396.3518555495991 640.1447999531251 397.9729177417047 644.058411868894 397.97286999999994 648.13915 L 397.97286999999994 648.63915 L 358.4423499999999 648.6406099999999 Z" stroke-linecap="round" />
</g>
<g transform="matrix(1 0 0 1 339.31 615.32)"  >
<path style="stroke: none; stroke-width: 1; stroke-dasharray: none; stroke-linecap: butt; stroke-dashoffset: 0; stroke-linejoin: miter; stroke-miterlimit: 4; fill: rgb(14,83,159); fill-rule: nonzero; opacity: 1;" vector-effect="non-scaling-stroke"  transform=" translate(-399.31, -525.32)" d="M 420.11374 612.06727 C 417.8419664839407 612.0570117960993 415.92987768586255 610.364072436524 415.64451 608.11027 L 403.10642 504.78016 C 403.0181596775387 504.0475932563285 402.41015384820673 503.48805606308554 401.6727923534938 503.46081740362547 C 400.9354308587809 503.4335787441654 400.2877990870721 503.94673178897483 400.14573 504.67079 L 380.21067 606.08 C 379.79219480230114 608.1881566797832 377.944186404825 609.7080846511689 375.7949 609.7118300000001 L 361.16089999999997 609.7118300000001 C 359.9526416448436 609.711970025682 358.79509598408134 609.2261655396294 357.94882977571456 608.363772487136 C 357.10256356734783 607.5013794346426 356.6386942134991 606.3348704642619 356.66164 605.12683 L 359.59058999999996 448.92469000000006 L 359.82935999999995 448.78211000000005 C 381.17701999999997 436.07117000000005 406.33912999999995 435.23911000000004 436.75535999999994 446.24211 L 437.0746899999999 446.35734 L 441.9640999999999 606.73625 C 442.03174080357053 609.2008197407989 440.1094364766271 611.2637708178686 437.6462299999999 611.37004 L 420.2914899999999 612.06437 C 420.23215 612.0663 420.17258 612.06727 420.11374 612.06727 Z" stroke-linecap="round" />
</g>
<g transform="matrix(1 0 0 1 343.41 371.14)"  >
<circle style="stroke: none; stroke-width: 1; stroke-dasharray: none; stroke-linecap: butt; stroke-dashoffset: 0; stroke-linejoin: miter; stroke-miterlimit: 4; fill: rgb(255,184,184); fill-rule: nonzero; opacity: 1;" vector-effect="non-scaling-stroke"  cx="0" cy="0" r="24.56103" />
</g>
<g transform="matrix(1 0 0 1 378.86 466.16)"  >
<path style="stroke: none; stroke-width: 1; stroke-dasharray: none; stroke-linecap: butt; stroke-dashoffset: 0; stroke-linejoin: miter; stroke-miterlimit: 4; fill: rgb(207,59,66); fill-rule: nonzero; opacity: 1;" vector-effect="non-scaling-stroke"  transform=" translate(-438.86, -376.16)" d="M 460.25272 429.61688 C 458.98698524425276 429.79681455326954 457.7044082863271 429.4304886340833 456.72464 428.6092 L 431.53956000000005 407.47481999999997 C 422.92773995683746 400.2500038826848 417.23336292316117 390.1430478172774 415.51567 379.034 L 409.85085 342.43246999999997 C 407.9643792689778 337.60473212155 408.799026894253 332.1371201554693 412.0399519561475 328.09209486689457 C 415.2808770180419 324.0470695783199 420.4348887736083 322.0401863994852 425.5578209040125 322.8284701233416 C 430.6807530344166 323.6167538471981 434.99301864541997 327.08024667527843 436.86796999999996 331.91247 L 448.85387 389.42347 L 467.98587 415.39121 C 469.106070437777 416.9187513511483 469.1535652439212 418.98314806338027 468.10479999999995 420.56059 L 463.359 427.6622 C 462.8496975193548 428.4235666491888 462.1204312460312 429.0116149575218 461.26840999999996 429.34796 C 460.94164110983314 429.4773551056825 460.60070669206436 429.5676228878073 460.25272 429.61688 Z" stroke-linecap="round" />
</g>
<g transform="matrix(1 0 0 1 298.23 467.71)"  >
<path style="stroke: none; stroke-width: 1; stroke-dasharray: none; stroke-linecap: butt; stroke-dashoffset: 0; stroke-linejoin: miter; stroke-miterlimit: 4; fill: rgb(207,59,66); fill-rule: nonzero; opacity: 1;" vector-effect="non-scaling-stroke"  transform=" translate(-358.23, -377.71)" d="M 338.01326 431.48451 C 336.94427242711515 430.78327485944976 336.2235697953652 429.6608707305637 336.03077 428.39703 L 331.09 395.89258 C 329.39929406210274 384.77940110871987 331.80280033522246 373.4304163653963 337.85343 363.95671000000004 L 357.78468 332.73960999999997 C 359.55827788920044 327.86912064309035 363.79739559048807 324.3162069693637 368.9029001995884 323.42114343262364 C 374.0084048086887 322.52607989588364 379.2033164896957 324.4250814980053 382.5279458003053 328.40178314577594 C 385.85257511091487 332.3784847935466 386.8009642401006 337.82769322394876 385.01534999999996 342.69379 L 356.01352999999995 393.78267999999997 L 353.21712999999994 425.91578999999996 C 353.0487030746483 427.80254988776755 351.72036405533385 429.3835299033358 349.8908799999999 429.87467 L 341.6363999999999 432.06967 C 340.75105064696027 432.3046690380356 339.81510464632635 432.2642358415102 338.9533199999999 431.95376 C 338.62255345339855 431.83497306164355 338.307005979692 431.6774611453437 338.01326 431.48451 Z" stroke-linecap="round" />
</g>
<g transform="matrix(1 0 0 1 334.46 475.94)"  >
<path style="stroke: none; stroke-width: 1; stroke-dasharray: none; stroke-linecap: butt; stroke-dashoffset: 0; stroke-linejoin: miter; stroke-miterlimit: 4; fill: rgb(207,59,66); fill-rule: nonzero; opacity: 1;" vector-effect="non-scaling-stroke"  transform=" translate(-394.46, -385.95)" d="M 430.27268 324.76606 C 421.7276719861408 315.3952407545599 409.3922509874445 310.40784009566914 396.73557 311.20649 Q 396.11957 311.24458999999996 395.50852 311.29242999999997 L 395.508 311.29242999999997 C 383.5268365216705 312.23975185626364 372.53566983331194 318.3062753416364 365.34833 327.93891999999994 C 358.04103306251 337.70618977377796 355.2987573516454 350.1493737732843 357.82343 362.08344999999997 C 362.5857277628447 384.62745382989505 361.3804657626476 408.02413387879375 354.32685 429.9594499999999 L 347.73798 450.41844999999995 C 347.3097754871167 451.74707408816585 347.5226229786732 453.19920403260943 348.3141119143512 454.3490502558965 C 349.10560085002913 455.4988964791836 350.38603907905326 456.21615749991815 351.77997999999997 456.29051999999996 L 385.46504 458.10151999999994 L 394.08516 443.21180999999996 L 394.08516 458.565 L 435.02608 460.76611 C 435.10762 460.771 435.18868 460.77295000000004 435.26923999999997 460.77295000000004 C 436.52523881263284 460.7725090263092 437.72389844762245 460.2471704874277 438.57545940921784 459.32392775635435 C 439.4270203708132 458.40068502528095 439.8539812060648 457.163563387709 439.75312999999994 455.91162 L 435.12568999999996 398.52979000000005 L 440.92988999999994 359.55713000000003 C 442.83288906301874 346.94435805462746 438.91343210583943 334.1490672271771 430.27268 324.76606 Z" stroke-linecap="round" />
</g>
<g transform="matrix(1 0 0 1 344.98 368.27)"  >
<path style="stroke: none; stroke-width: 1; stroke-dasharray: none; stroke-linecap: butt; stroke-dashoffset: 0; stroke-linejoin: miter; stroke-miterlimit: 4; fill: rgb(47,46,65); fill-rule: nonzero; opacity: 1;" vector-effect="non-scaling-stroke"  transform=" translate(-404.98, -278.28)" d="M 386.33817 304.59581 C 388.61217 305.90423999999996 397.60062999999997 306.77180999999996 398.24095 304.22754 L 398.25467 304.17163999999997 C 398.70043 302.30753 398.33027 300.36096 398.20234 298.44856 C 398.07441 296.53616 398.2616 294.4353 399.56408999999996 293.02918999999997 C 401.99208999999996 290.40804999999995 406.31165 291.79753999999997 409.82253 291.1348 C 414.076970038408 290.1851594583935 416.9634359521555 286.2225481192314 416.56259 281.88187999999997 C 416.51259 281.48438 416.43418 281.08644 416.34626 280.68872999999996 C 415.901096108443 278.6459723700904 416.4390701623808 276.5126555635538 417.7996733807012 274.9252713922846 C 419.1602765990216 273.3378872210155 421.1862098321188 272.4799529491774 423.27302 272.60743999999994 C 426.82111999999995 272.81031999999993 430.65101999999996 273.88532999999995 433.58659 271.25731999999994 C 435.85669 269.2250899999999 436.41059 263.93495999999993 435.41312 261.05598999999995 C 433.73689 256.21768 422.99942 253.68473999999995 418.31127 252.29231999999996 C 406.56901202046237 248.89957122454092 393.92323017449195 250.97456696580193 383.88091 257.94185999999996 C 380.91972 260.02909999999997 378.15428999999995 262.65169999999995 376.89218 266.04761999999994 C 375.63007000000005 269.4435399999999 376.23895 273.72790999999995 379.08495 275.9696799999999 C 374.5952943993323 280.7231670090381 372.97733207196586 287.5081202905494 374.83877 293.7761099999999 C 376.24445 298.30556 382.95321 302.64814 386.33817 304.59581 Z" stroke-linecap="round" />
</g>
<g transform="matrix(1 0 0 1 540 738.31)"  >
<path style="stroke: none; stroke-width: 1; stroke-dasharray: none; stroke-linecap: butt; stroke-dashoffset: 0; stroke-linejoin: miter; stroke-miterlimit: 4; fill: rgb(204,204,204); fill-rule: nonzero; opacity: 1;" vector-effect="non-scaling-stroke"  transform=" translate(-600, -648.31)" d="M 995 649.31229 L 205 649.31229 C 204.4477152501692 649.31229 204 648.8645747498308 204 648.31229 C 204 647.7600052501691 204.4477152501692 647.31229 205 647.31229 L 995 647.31229 C 995.5522847498308 647.31229 996 647.7600052501691 996 648.31229 C 996 648.8645747498308 995.5522847498308 649.31229 995 649.31229 Z" stroke-linecap="round" />
</g>
<g transform="matrix(1 0 0 1 857.8 548.28)"  >
<path style="stroke: none; stroke-width: 1; stroke-dasharray: none; stroke-linecap: butt; stroke-dashoffset: 0; stroke-linejoin: miter; stroke-miterlimit: 4; fill: rgb(242,242,242); fill-rule: nonzero; opacity: 1;" vector-effect="non-scaling-stroke"  transform=" translate(-917.8, -458.29)" d="M 918.7133 469.6076 L 918.7133 469.6076 C 912.4608882966354 470.1112805156395 906.9839929680072 465.451014150189 906.4803105592905 459.19860259932676 C 905.9766281505738 452.9461910484645 910.6368928577542 447.469294308822 916.8893042561135 446.96561000702815 C 923.1417156544727 446.4619257052343 928.618613805129 451.1221887541443 929.1223 457.3746 C 929.6259752488221 463.6270129267369 924.9657116103521 469.10390841039566 918.7133 469.6076 Z M 918.573 467.86591 L 918.573 467.86591 C 923.8635022698855 467.43971717918896 927.806805602261 462.8054223534688 927.3806171113933 457.514919734773 C 926.9544286205258 452.22441711607723 922.320137022153 448.28110999082435 917.0296340546505 448.7072941517481 C 911.739131087148 449.13347831267185 907.7958201690202 453.76776668369433 908.222 459.05827 C 908.4266592189294 461.5988648328656 909.6321850788783 463.9541024840747 911.5733748627684 465.6058560139928 C 913.5145646466586 467.2576095439109 916.032405669644 468.07057545687996 918.573 467.86591 Z" stroke-linecap="round" />
</g>
<g transform="matrix(1 0 0 1 897.82 523.47)"  >
<circle style="stroke: none; stroke-width: 1; stroke-dasharray: none; stroke-linecap: butt; stroke-dashoffset: 0; stroke-linejoin: miter; stroke-miterlimit: 4; fill: rgb(242,242,242); fill-rule: nonzero; opacity: 1;" vector-effect="non-scaling-stroke"  cx="0" cy="0" r="6.98934" />
</g>
<g transform="matrix(1 0 0 1 932.18 501.51)"  >
<circle style="stroke: none; stroke-width: 1; stroke-dasharray: none; stroke-linecap: butt; stroke-dashoffset: 0; stroke-linejoin: miter; stroke-miterlimit: 4; fill: rgb(242,242,242); fill-rule: nonzero; opacity: 1;" vector-effect="non-scaling-stroke"  cx="0" cy="0" r="3.67143" />
</g>
<g transform="matrix(1 0 0 1 551.46 487.28)"  >
<path style="stroke: none; stroke-width: 1; stroke-dasharray: none; stroke-linecap: butt; stroke-dashoffset: 0; stroke-linejoin: miter; stroke-miterlimit: 4; fill: rgb(242,242,242); fill-rule: nonzero; opacity: 1;" vector-effect="non-scaling-stroke"  transform=" translate(-611.46, -397.29)" d="M 605.34138 387.71458 C 609.2122356573052 385.2409076584747 614.1920464241324 385.3425571420565 617.9587330265558 387.97212942895845 C 621.7254196289792 390.6017017158605 623.537197111299 395.24134720290783 622.5492359935106 399.7276052430408 C 621.5612748757221 404.21386328317374 617.9681373211655 407.66324154670986 613.4452986911498 408.46729944248386 C 608.9224600611341 409.27135733825787 604.3606166112609 407.2717493192277 601.88695 403.40089 L 601.88695 403.40089 C 598.5166100358041 398.1140070811571 600.0619746712343 391.0966210769843 605.34138 387.71458 Z M 616.63238 405.38296 C 619.9077302944161 403.2898684113442 621.5997186714723 399.4298512117037 620.9193722809746 395.60283138701374 C 620.2390258904768 391.77581156232384 617.3203275836544 388.73545670748103 613.5242640866674 387.89948190135635 C 609.7282005896802 387.06350709523167 605.8023431660457 388.5965436045515 603.5773160463922 391.7837377100994 C 601.3522889267387 394.9709318156473 601.2662740162211 399.1846189047395 603.35938 402.45996 L 603.35938 402.45996 C 606.2211565312548 406.92702287406627 612.158800466645 408.2346415762173 616.63234 405.383 Z" stroke-linecap="round" />
</g>
<g transform="matrix(1 0 0 1 547.04 440.4)"  >
<circle style="stroke: none; stroke-width: 1; stroke-dasharray: none; stroke-linecap: butt; stroke-dashoffset: 0; stroke-linejoin: miter; stroke-miterlimit: 4; fill: rgb(242,242,242); fill-rule: nonzero; opacity: 1;" vector-effect="non-scaling-stroke"  cx="0" cy="0" r="6.98934" />
</g>
<g transform="matrix(1 0 0 1 543.76 399.76)"  >
<circle style="stroke: none; stroke-width: 1; stroke-dasharray: none; stroke-linecap: butt; stroke-dashoffset: 0; stroke-linejoin: miter; stroke-miterlimit: 4; fill: rgb(242,242,242); fill-rule: nonzero; opacity: 1;" vector-effect="non-scaling-stroke"  cx="0" cy="0" r="3.67143" />
</g>
<g transform="matrix(1 0 0 1 245.46 600)"  >
<path style="stroke: none; stroke-width: 1; stroke-dasharray: none; stroke-linecap: butt; stroke-dashoffset: 0; stroke-linejoin: miter; stroke-miterlimit: 4; fill: rgb(242,242,242); fill-rule: nonzero; opacity: 1;" vector-effect="non-scaling-stroke"  transform=" translate(-305.46, -510)" d="M 296.07037 516.39442 C 292.5412463128376 511.2087072384914 293.8841749342414 504.14393666760463 299.06988565519174 500.6148099820371 C 304.255596376142 497.08568329646965 311.32036772351586 498.4286078329867 314.8494974074872 503.61431651337705 C 318.3786270914586 508.8000251937674 317.0357066398287 515.8647973176259 311.85 519.39393 L 311.85 519.39393 C 306.66275777002573 522.9157081397316 299.60362068256234 521.5738546054462 296.07037 516.39442 Z M 313.40495000000004 504.59741999999994 C 310.41874635893697 500.20951966055367 304.44085416954243 499.07321957735303 300.0529534088615 502.0594225994577 C 295.6650526481806 505.0456256215624 294.52875172173697 511.02351765067004 297.5149541248832 515.4114188325856 C 300.5011565280294 519.799320014501 306.4790483968501 520.9356217841877 310.86695000000003 517.9494199999999 L 310.86695000000003 517.9494199999999 C 315.2494596233839 514.9596768017167 316.3848590215925 508.98663628917006 313.405 504.5974 Z" stroke-linecap="round" />
</g>
<g transform="matrix(1 0 0 1 198.73 605.78)"  >
<circle style="stroke: none; stroke-width: 1; stroke-dasharray: none; stroke-linecap: butt; stroke-dashoffset: 0; stroke-linejoin: miter; stroke-miterlimit: 4; fill: rgb(242,242,242); fill-rule: nonzero; opacity: 1;" vector-effect="non-scaling-stroke"  cx="0" cy="0" r="6.98934" />
</g>
<g transform="matrix(1 0 0 1 158.2 610.22)"  >
<circle style="stroke: none; stroke-width: 1; stroke-dasharray: none; stroke-linecap: butt; stroke-dashoffset: 0; stroke-linejoin: miter; stroke-miterlimit: 4; fill: rgb(242,242,242); fill-rule: nonzero; opacity: 1;" vector-effect="non-scaling-stroke"  cx="0" cy="0" r="3.67143" />
</g>
<g transform="matrix(0 0 0 0 0 0)"  >
<g style=""   >
</g>
</g>
<g transform="matrix(0 0 0 0 0 0)"  >
<g style=""   >
</g>
</g>
<g transform="matrix(0 0 0 0 0 0)"  >
<g style=""   >
</g>
</g>
<g transform="matrix(0 0 0 0 0 0)"  >
<g style=""   >
</g>
</g>
<g transform="matrix(0 0 0 0 0 0)"  >
<g style=""   >
</g>
</g>
<g transform="matrix(0 0 0 0 0 0)"  >
<g style=""   >
</g>
</g>
<g transform="matrix(0 0 0 0 0 0)"  >
<g style=""   >
</g>
</g>
<g transform="matrix(0 0 0 0 0 0)"  >
<g style=""   >
</g>
</g>
<g transform="matrix(0 0 0 0 0 0)"  >
<g style=""   >
</g>
</g>
<g transform="matrix(0 0 0 0 0 0)"  >
<g style=""   >
</g>
</g>
<g transform="matrix(0 0 0 0 0 0)"  >
<g style=""   >
</g>
</g>
<g transform="matrix(0 0 0 0 0 0)"  >
<g style=""   >
</g>
</g>
<g transform="matrix(0 0 0 0 0 0)"  >
<g style=""   >
</g>
</g>
<g transform="matrix(0 0 0 0 0 0)"  >
<g style=""   >
</g>
</g>
<g transform="matrix(0 0 0 0 0 0)"  >
<g style=""   >
</g>
</g>
<g transform="matrix(0 0 0 0 0 0)"  >
<g style=""   >
</g>
</g>
<g transform="matrix(0 0 0 0 0 0)"  >
<g style=""   >
</g>
</g>
<g transform="matrix(0 0 0 0 0 0)"  >
<g style=""   >
</g>
</g>
<g transform="matrix(0 0 0 0 0 0)"  >
<g style=""   >
</g>
</g>
<g transform="matrix(0 0 0 0 0 0)"  >
<g style=""   >
</g>
</g>
<g transform="matrix(0 0 0 0 0 0)"  >
<g style=""   >
</g>
</g>
<g transform="matrix(0 0 0 0 0 0)"  >
<g style=""   >
</g>
</g>
<g transform="matrix(0 0 0 0 0 0)"  >
<g style=""   >
</g>
</g>
<g transform="matrix(0 0 0 0 0 0)"  >
<g style=""   >
</g>
</g>
<g transform="matrix(0 0 0 0 0 0)"  >
<g style=""   >
</g>
</g>
<g transform="matrix(0 0 0 0 0 0)"  >
<g style=""   >
</g>
</g>
<g transform="matrix(0 0 0 0 0 0)"  >
<g style=""   >
</g>
</g>
<g transform="matrix(0 0 0 0 0 0)"  >
<g style=""   >
</g>
</g>
<g transform="matrix(0 0 0 0 0 0)"  >
<g style=""   >
</g>
</g>
<g transform="matrix(0 0 0 0 0 0)"  >
<g style=""   >
</g>
</g>
<g transform="matrix(0 0 0 0 0 0)"  >
<g style=""   >
</g>
</g>
<g transform="matrix(0 0 0 0 0 0)"  >
<g style=""   >
</g>
</g>
<g transform="matrix(NaN NaN NaN NaN 0 0)"  >
<g style=""   >
</g>
</g>
<g transform="matrix(NaN NaN NaN NaN 0 0)"  >
<g style=""   >
</g>
</g>
</svg>